<svg width="32" height="32" viewBox="0 0 32 32" fill="none" xmlns="http://www.w3.org/2000/svg">
  <defs>
    <linearGradient id="bgGradient" x1="0%" y1="0%" x2="100%" y2="100%">
      <stop offset="0%" style="stop-color:#1a1a2e;stop-opacity:1" />
      <stop offset="100%" style="stop-color:#16213e;stop-opacity:1" />
    </linearGradient>
    
    <linearGradient id="yinGradient" x1="0%" y1="0%" x2="100%" y2="100%">
      <stop offset="0%" style="stop-color:#e94560;stop-opacity:1" />
      <stop offset="100%" style="stop-color:#533483;stop-opacity:1" />
    </linearGradient>
    
    <linearGradient id="yangGradient" x1="0%" y1="0%" x2="100%" y2="100%">
      <stop offset="0%" style="stop-color:#00d4ff;stop-opacity:1" />
      <stop offset="100%" style="stop-color:#0099cc;stop-opacity:1" />
    </linearGradient>
    
    <linearGradient id="glowGradient" x1="0%" y1="0%" x2="100%" y2="100%">
      <stop offset="0%" style="stop-color:#00d4ff;stop-opacity:0.8" />
      <stop offset="100%" style="stop-color:#e94560;stop-opacity:0.8" />
    </linearGradient>
  </defs>
  
  <!-- 背景圆环 -->
  <circle cx="16" cy="16" r="15" fill="url(#bgGradient)" stroke="url(#glowGradient)" stroke-width="1"/>
  
  <!-- 外圈科技环 -->
  <circle cx="16" cy="16" r="13" fill="none" stroke="url(#glowGradient)" stroke-width="0.5" opacity="0.6"/>
  <circle cx="16" cy="16" r="11" fill="none" stroke="url(#glowGradient)" stroke-width="0.3" opacity="0.4"/>
  
  <!-- 太极图案 -->
  <circle cx="16" cy="16" r="10" fill="none" stroke="url(#glowGradient)" stroke-width="1" opacity="0.8"/>
  
  <!-- 上半部分（阳）- 科技蓝 -->
  <path d="M 16 6 A 10 10 0 0 1 16 26 A 5 5 0 0 1 16 16 A 5 5 0 0 1 16 6" fill="url(#yangGradient)"/>
  
  <!-- 下半部分（阴）- 神秘紫红 -->
  <path d="M 16 16 A 5 5 0 0 1 16 26 A 10 10 0 0 1 16 6 A 5 5 0 0 1 16 16" fill="url(#yinGradient)"/>
  
  <!-- 阳中的阴点 -->
  <circle cx="16" cy="11" r="1.5" fill="url(#yinGradient)"/>
  
  <!-- 阴中的阳点 -->
  <circle cx="16" cy="21" r="1.5" fill="url(#yangGradient)"/>
  
  <!-- 科技线条装饰 -->
  <line x1="2" y1="16" x2="6" y2="16" stroke="url(#yangGradient)" stroke-width="1" opacity="0.8"/>
  <line x1="26" y1="16" x2="30" y2="16" stroke="url(#yinGradient)" stroke-width="1" opacity="0.8"/>
  <line x1="16" y1="2" x2="16" y2="6" stroke="url(#yangGradient)" stroke-width="1" opacity="0.8"/>
  <line x1="16" y1="26" x2="16" y2="30" stroke="url(#yinGradient)" stroke-width="1" opacity="0.8"/>
  
  <!-- 八卦符号 - 现代科技风格 -->
  <!-- 乾卦 (天) - 左上 -->
  <g opacity="0.9">
    <line x1="3" y1="3" x2="5" y2="3" stroke="url(#yangGradient)" stroke-width="1.2"/>
    <line x1="3" y1="5" x2="5" y2="5" stroke="url(#yangGradient)" stroke-width="1.2"/>
    <line x1="3" y1="7" x2="5" y2="7" stroke="url(#yangGradient)" stroke-width="1.2"/>
  </g>
  
  <!-- 坤卦 (地) - 右下 -->
  <g opacity="0.9">
    <line x1="27" y1="25" x2="29" y2="25" stroke="url(#yinGradient)" stroke-width="1.2"/>
    <line x1="27" y1="27" x2="29" y2="27" stroke="url(#yinGradient)" stroke-width="1.2"/>
    <line x1="27" y1="29" x2="29" y2="29" stroke="url(#yinGradient)" stroke-width="1.2"/>
  </g>
  
  <!-- 坎卦 (水) - 左下 -->
  <g opacity="0.9">
    <line x1="3" y1="25" x2="5" y2="25" stroke="url(#yangGradient)" stroke-width="1.2"/>
    <line x1="3" y1="27" x2="5" y2="27" stroke="url(#yangGradient)" stroke-width="1.2"/>
    <line x1="3" y1="29" x2="5" y2="29" stroke="url(#yangGradient)" stroke-width="1.2"/>
  </g>
  
  <!-- 离卦 (火) - 右上 -->
  <g opacity="0.9">
    <line x1="27" y1="3" x2="29" y2="3" stroke="url(#yinGradient)" stroke-width="1.2"/>
    <line x1="27" y1="5" x2="29" y2="5" stroke="url(#yinGradient)" stroke-width="1.2"/>
    <line x1="27" y1="7" x2="29" y2="7" stroke="url(#yinGradient)" stroke-width="1.2"/>
  </g>
  
  <!-- 中心科技点 -->
  <circle cx="16" cy="16" r="0.8" fill="url(#glowGradient)" opacity="0.9"/>
</svg> 